<svg width="33" height="33" viewBox="0 0 33 33" fill="none" xmlns="http://www.w3.org/2000/svg">
<g clip-path="url(#clip0_22_2459)">
<rect width="28" height="28" transform="translate(4.89062 0.0380249) rotate(9.1)" fill="#E9EFFF"/>
<circle cx="16.4998" cy="16.076" r="11.6667" transform="rotate(9.1 16.4998 16.076)" stroke="#3369FF" stroke-width="1.5" stroke-linecap="round" stroke-linejoin="round"/>
<circle cx="20.6937" cy="12.0216" r="2.33333" transform="rotate(9.1 20.6937 12.0216)" stroke="#3369FF" stroke-width="1.5" stroke-linecap="round" stroke-linejoin="round"/>
<path d="M9.49563 15.5449L9.69353 15.8543C10.061 16.4288 10.8384 16.4122 11.2236 15.8217C11.6088 15.2312 12.3862 15.2146 12.7537 15.7891L12.9516 16.0985" stroke="#3369FF" stroke-width="1.5" stroke-linecap="round" stroke-linejoin="round"/>
<path d="M19.8176 23.6967L20.0089 23.3196C20.3643 22.6193 19.9153 21.8541 19.1252 21.8135C18.3351 21.7729 17.8861 21.0077 18.2415 20.3074L18.4328 19.9303" stroke="#3369FF" stroke-width="1.5" stroke-linecap="round" stroke-linejoin="round"/>
<path d="M24.3892 18.5213L24.3789 18.5197" stroke="#3369FF" stroke-width="2" stroke-linecap="round" stroke-linejoin="round"/>
<path d="M12.1314 21.2841L12.1211 21.2824" stroke="#3369FF" stroke-width="2" stroke-linecap="round" stroke-linejoin="round"/>
<path d="M12.6402 10.7317L12.6299 10.73" stroke="#3369FF" stroke-width="2" stroke-linecap="round" stroke-linejoin="round"/>
</g>
<defs>
<clipPath id="clip0_22_2459">
<rect width="28" height="28" fill="white" transform="translate(4.89062 0.0380249) rotate(9.1)"/>
</clipPath>
</defs>
</svg>
