<svg xmlns="http://www.w3.org/2000/svg" width="21.5" height="18.5" viewBox="0 0 21.5 18.5">
  <g id="style_stroke" data-name="style=stroke" transform="translate(-1.25 -2.65)">
    <g id="filter-circle">
      <path id="vector_Stroke_" data-name="vector (Stroke)" d="M7.75,17.5A.75.75,0,0,0,7,16.75H2a.75.75,0,0,0,0,1.5H7A.75.75,0,0,0,7.75,17.5Z" fill="#3268ff" fill-rule="evenodd"/>
      <path id="vector_Stroke__2" data-name="vector (Stroke)_2" d="M16.25,6.5A.75.75,0,0,1,17,5.75h5a.75.75,0,0,1,0,1.5H17A.75.75,0,0,1,16.25,6.5Z" fill="#3268ff" fill-rule="evenodd"/>
      <path id="vector_Stroke__3" data-name="vector (Stroke)_3" d="M22.75,17.5a.75.75,0,0,0-.75-.75H13a.75.75,0,0,0,0,1.5h9A.75.75,0,0,0,22.75,17.5Z" fill="#3268ff" fill-rule="evenodd"/>
      <path id="vector_Stroke__4" data-name="vector (Stroke)_4" d="M1.25,6.5A.75.75,0,0,1,2,5.75h9a.75.75,0,0,1,0,1.5H2A.75.75,0,0,1,1.25,6.5Z" fill="#3268ff" fill-rule="evenodd"/>
      <path id="vector_Stroke__5" data-name="vector (Stroke)_5" d="M10,15.15A2.25,2.25,0,1,1,7.75,17.4,2.25,2.25,0,0,1,10,15.15Zm3.75,2.25A3.75,3.75,0,1,0,10,21.15,3.75,3.75,0,0,0,13.75,17.4Z" fill="#3268ff" fill-rule="evenodd"/>
      <path id="vector_Stroke__6" data-name="vector (Stroke)_6" d="M14,4.15A2.25,2.25,0,1,0,16.25,6.4,2.25,2.25,0,0,0,14,4.15ZM10.25,6.4A3.75,3.75,0,1,1,14,10.15,3.75,3.75,0,0,1,10.25,6.4Z" fill="#3268ff" fill-rule="evenodd"/>
    </g>
  </g>
</svg>
