<svg preserveAspectRatio="none" width="100%" height="100%" overflow="visible" style="display: block;" viewBox="0 0 42.8783 45.7653" fill="none" xmlns="http://www.w3.org/2000/svg">
<g id="Group">
<path id="Vector" d="M27.3151 20.3978C28.0595 19.7587 28.8113 19.1422 29.5707 18.5332C29.1271 18.9016 28.6234 19.3151 28.082 19.7888C27.8414 19.9767 27.5783 20.1873 27.3076 20.4053L27.3151 20.3978Z" fill="var(--fill-0, white)"/>
<path id="Vector_2" d="M32.3601 21.142L29.7962 30.1793C29.4203 31.5026 28.7662 32.6379 27.9241 33.5551C27.8489 33.6378 27.7662 33.7205 27.691 33.7957C27.6083 33.8859 27.5331 33.9611 27.4504 34.0288C27.2023 34.2619 26.9467 34.4724 26.6685 34.6679C25.225 35.713 23.4731 36.2768 21.6988 36.2768C19.9244 36.2768 19.0823 35.9761 17.8643 35.337C20.4657 27.7207 28.3978 19.9766 30.7135 17.8339L32.3676 21.1345L32.3601 21.142Z" fill="var(--fill-0, white)"/>
<path id="Vector_3" d="M29.0896 14.6161L18.2253 18.7888C15.2028 19.9542 13.0299 22.4203 12.2631 25.5555C11.4962 28.6532 12.2931 31.9313 14.3833 34.3071L14.481 34.4199C13.9021 35.6605 13.5638 36.698 13.3608 37.495C9.39849 33.9086 7.83463 27.9013 10.5263 22.518L21.7815 0L29.0896 14.6161Z" fill="var(--fill-0, white)"/>
<path id="Vector_4" d="M21.7816 40.7202C20.0749 40.7202 18.4734 40.3894 17.0223 39.803C17.0299 38.7729 17.1878 37.7128 17.4659 36.6452C18.7441 37.2466 20.2704 37.6451 21.6914 37.6451C26.1123 37.6451 29.8866 34.7956 31.0895 30.5551L33.2474 22.9614C36.9991 31.2243 30.9692 40.7277 21.7816 40.7277V40.7202Z" fill="var(--fill-0, white)"/>
<g id="Group_2">
<path id="Vector_5" d="M27.3152 20.3979C28.0596 19.7589 28.8114 19.1424 29.5708 18.5333C29.1272 18.9018 28.6234 19.3153 28.0821 19.7889C27.8415 19.9769 27.5784 20.1874 27.3077 20.4055L27.3152 20.3979Z" fill="var(--fill-0, white)"/>
<path id="Vector_6" d="M34.3676 14.037L32.3526 21.142L29.7888 30.1793C29.4129 31.5026 28.7588 32.6379 27.9167 33.5551C27.8415 33.6378 27.7588 33.7205 27.6836 33.7957C27.6009 33.8859 27.5257 33.9611 27.443 34.0288C27.1949 34.2619 26.9393 34.4724 26.6611 34.6679C25.2175 35.713 23.4657 36.2768 21.6913 36.2768C19.9169 36.2768 19.0749 35.9761 17.8569 35.337C20.4583 27.7207 28.3903 19.9766 30.7061 17.8339C31.082 17.488 31.3075 17.2925 31.3376 17.2549C31.473 17.1497 31.8489 16.8038 31.8714 16.7888C31.8338 16.8113 30.9467 17.3602 30.5858 17.6008C21.6763 23.6532 17.3005 29.1493 15.1502 33.0965C11.6992 28.7884 13.3232 22.1269 18.714 20.0518L29.7061 15.8264L34.3751 14.037H34.3676Z" fill="var(--fill-0, white)"/>
</g>
<path id="Vector_7" d="M25.6533 22.3901C22.1196 26.0892 18.022 30.8785 16.3529 36.0814C16.3153 36.1866 16.2852 36.2919 16.2551 36.3972C15.977 37.3069 15.7815 38.2317 15.6762 39.164C15.6762 39.164 15.6762 30.7207 28.8036 19.3677C27.7134 20.3376 26.6758 21.3601 25.6533 22.3976V22.3901Z" fill="var(--fill-0, white)"/>
<path id="Vector_8" d="M29.5703 18.5255C29.1267 18.8939 28.623 19.3074 28.0816 19.7811C23.0968 24.0968 14.7061 32.5175 14.3377 40.5849L14.2325 40.4797C14.2625 40.0135 14.3077 39.5474 14.3828 39.0887C14.4129 38.8632 14.458 38.6376 14.4956 38.4121C14.661 37.5399 14.9091 36.6828 15.2174 35.8407C15.27 35.7054 15.3151 35.5701 15.3678 35.4347C17.3602 30.2845 21.5931 25.7208 25.375 22.1119C26.0065 21.5254 26.6531 20.954 27.3072 20.3976C28.0516 19.7586 28.8034 19.142 29.5628 18.533L29.5703 18.5255Z" fill="var(--fill-0, white)"/>
<path id="Vector_9" d="M30.0441 18.2851C29.623 18.6309 29.2095 18.9918 28.8035 19.3527C27.7133 20.3226 26.6757 21.3451 25.6532 22.3827C22.1195 26.0818 18.0219 30.8711 16.3528 36.0739C16.3152 36.1792 16.2851 36.2845 16.255 36.3897C15.9769 37.2995 15.7814 38.2243 15.6761 39.1566C15.6536 39.3821 15.631 39.6077 15.616 39.8407C15.5633 40.57 15.5784 41.3069 15.6536 42.0512C15.6912 42.367 15.7363 42.6903 15.7889 43.0136C15.8114 43.1414 15.8415 43.2617 15.8641 43.3895L15.2927 43.5173L14.413 43.7128C14.3829 43.5323 14.3529 43.3519 14.3303 43.179C14.3002 42.9384 14.2701 42.6978 14.2551 42.4572C14.225 42.1414 14.21 41.8256 14.21 41.5174C14.21 41.1715 14.21 40.8332 14.2326 40.4873C14.2626 40.0212 14.3077 39.555 14.3829 39.0964C14.413 38.8708 14.4581 38.6453 14.4957 38.4197C14.6611 37.5476 14.9092 36.6905 15.2175 35.8484C15.2701 35.7131 15.3152 35.5777 15.3679 35.4424C17.3603 30.2922 21.5932 25.7284 25.375 22.1195C26.0066 21.5331 26.6532 20.9617 27.3073 20.4053C28.0516 19.7662 28.8035 19.1497 29.5629 18.5407C29.1193 18.9091 28.6155 19.3226 28.0742 19.7963C28.6306 19.3602 29.1118 18.9918 29.4802 18.7136C29.4877 18.7136 29.4952 18.6986 29.5027 18.6986C29.7208 18.5407 29.8937 18.4054 30.029 18.3076L30.0441 18.2851Z" fill="var(--fill-0, white)"/>
<path id="Vector_10" d="M31.6156 16.969L31.8787 16.7886C31.6607 16.954 30.2547 18.1118 30.0517 18.2848C29.9164 18.3825 29.7359 18.5178 29.5254 18.6757C29.5254 18.6757 29.5104 18.6908 29.5029 18.6908C29.1345 18.969 28.6533 19.3374 28.0969 19.7734C28.6382 19.3073 29.142 18.8863 29.5856 18.5178C29.6081 18.4953 29.6307 18.4803 29.6532 18.4652C29.9841 18.2021 30.3074 17.9464 30.6382 17.6833C30.6983 17.6382 30.7509 17.5931 30.8111 17.548C30.8186 17.548 30.8336 17.5329 30.8336 17.5254" fill="var(--fill-0, white)"/>
<path id="Vector_11" d="M36.7053 43.2841H7.1048C6.41965 43.2841 5.86424 43.8395 5.86424 44.5247C5.86424 45.2098 6.41965 45.7652 7.1048 45.7652H36.7053C37.3905 45.7652 37.9459 45.2098 37.9459 44.5247C37.9459 43.8395 37.3905 43.2841 36.7053 43.2841Z" fill="var(--fill-0, white)"/>
<path id="Vector_12" d="M41.6377 38.9008H31.2847C30.5995 38.9008 30.0441 39.4562 30.0441 40.1414C30.0441 40.8265 30.5995 41.3819 31.2847 41.3819H41.6377C42.3229 41.3819 42.8783 40.8265 42.8783 40.1414C42.8783 39.4562 42.3229 38.9008 41.6377 38.9008Z" fill="var(--fill-0, white)"/>
<path id="Vector_13" d="M10.4809 38.9008H1.24064C0.5555 38.9008 8.23239e-05 39.4562 8.23239e-05 40.1414C8.23239e-05 40.8265 0.5555 41.3819 1.24064 41.3819H10.4809C11.1661 41.3819 11.7215 40.8265 11.7215 40.1414C11.7215 39.4562 11.1661 38.9008 10.4809 38.9008Z" fill="var(--fill-0, white)"/>
</g>
</svg>
