<?xml version="1.0" encoding="UTF-8"?>
<svg id="Blocks_verlic" xmlns="http://www.w3.org/2000/svg" version="1.1" viewBox="0 0 1800 1200">
  <defs>
    <style>
      .cls-1 {
        fill: #ff0;
      }

      .cls-1, .cls-2, .cls-3, .cls-4, .cls-5, .cls-6 {
        stroke-width: 0px;
      }

      .cls-2, .cls-3 {
        fill: blue;
      }

      .cls-3, .cls-6 {
        fill-rule: evenodd;
      }

      .cls-4, .cls-6 {
        fill: red;
      }

      .cls-5 {
        fill: #fff;
      }
    </style>
  </defs>
  <g>
    <rect class="cls-5" x="2.3" y="-.2" width="1794.7" height="399.2"/>
    <rect class="cls-2" x="2.3" y="399" width="1794.7" height="399.2"/>
  </g>
  <rect class="cls-4" x="2.3" y="798.2" width="1794.7" height="399.2"/>
  <g>
    <path class="cls-6" d="M617.9,251.6l-1.6,28.5-6.6,116.5c0,3.6-.7,38.1-16.7,77.3-9.8,24-23.2,44.7-40.1,61.7-21.1,21.3-47.3,36.5-78.1,45.4l-2.4.7-2.4-.7c-30.8-8.8-57.1-24.1-78.1-45.4-16.8-17-30.3-37.7-40.1-61.7-16-39.2-16.7-73.7-16.7-77.3l-7.5-131.8-.7-13.1c50.8-31.1,145.4-35.4,145.4-35.4,0,0,94.4,4.8,145.5,35.3Z"/>
    <path class="cls-3" d="M609.5,247.1l-8.4,149.2s0,139.5-128.7,176.4c-128.7-37-128.7-176.4-128.7-176.4l-8.4-149.2c50.6-31.5,137.1-30.8,137.1-30.8,0,0,86.5-.7,137.1,30.8Z"/>
    <polygon class="cls-1" points="437.2 229.8 441.5 237.1 450 237.1 445.7 244.5 450 251.9 441.5 251.9 437.2 259.3 432.9 251.9 424.4 251.9 428.7 244.5 424.4 237.1 432.9 237.1 437.2 229.8"/>
    <polygon class="cls-1" points="510.9 229.8 515.2 237.1 523.7 237.1 519.4 244.5 523.7 251.9 515.2 251.9 510.9 259.3 506.6 251.9 498.1 251.9 502.4 244.5 498.1 237.1 506.6 237.1 510.9 229.8"/>
    <polygon class="cls-1" points="474.1 279.1 478.3 286.5 486.9 286.5 482.6 293.9 486.9 301.3 478.3 301.3 474.1 308.7 469.8 301.3 461.2 301.3 465.5 293.9 461.2 286.5 469.8 286.5 474.1 279.1"/>
    <path class="cls-5" d="M578.4,437.8s-.9,9.9-6,19.4c-2,2.1-4,4.1-6,6.2-2.6,2.7-4.8,6.3-8.1,8.2-2.9,1.7-6.6,2-9.9,2.3-3.7.3-9,1.1-12.6.4-1.3-.3-2.4-.9-3.6-1.4-7.2-3.4-15.5-4.8-23.5-4.9-4.1,0-8.3.4-12.3,1.3-8.3,1.8-16.6,11.2-25.9,6.8-10.8-5.1-23-8.6-35-7.7-10.6.8-19.8,9-30.7,8-8.7-.8-21.7-6.7-27.1-13.6-5.4-7-7.5-16.3-8.7-24.8l52.4-69.3,20.5,27.5,32.1-62,31,62,21.3-27.1,52.1,68.9Z"/>
    <path class="cls-5" d="M386,463.5c-1-.3-3.4-1.2-6.1-3.9l6.1,3.9Z"/>
    <g>
      <path class="cls-5" d="M379.4,477.7c2,4,4,8.6,6.8,12.1,2.5,3,5.9,3.9,9.8,4.6,8.1,1.5,16.6,0,23.7-4.2,5.2-3,11.3-4.8,17.4-4.8s12.4,1.7,17.6,4.8c10.7,6.3,24.6,6.3,35.1,0,0,0-.1,0,0,0,5.3-3,11.4-4.8,17.7-4.8h-.2c6.2,0,12.4,1.7,17.7,4.8,8,4.7,17.5,5.9,26.5,3.5,2-.5,4-1.2,5.6-2.1,2.7-4,6.4-8.9,7.6-13.6-1.6.3-3.2,1.1-4.6,2-2.7,1.6-5.6,2.7-8.6,3.6-9,2.3-18.6,1-26.5-3.6-5.4-3.1-11.5-4.7-17.7-4.7h.2c-6.3,0-12.5,1.7-17.7,4.7h.1c-2.7,1.6-5.5,2.7-8.6,3.6-8.9,2.3-18.6,1-26.7-3.6-5.3-3.1-11.4-4.7-17.6-4.7s-12.3,1.7-17.4,4.7c-2.7,1.6-5.6,2.7-8.6,3.6-9,2.3-18.5,1-26.7-3.6-1.6-1-3.2-1.7-5.1-2.4"/>
      <path class="cls-5" d="M548.4,500.4c-19.4,25-46.4,44.1-76,54.1h0c-29.5-10-56.6-29-75.9-54.1h0c8,1.4,16.2-.2,23.2-4.2h0c5.2-3,11.3-4.7,17.4-4.7s12.4,1.6,17.6,4.7c10.6,6.3,24.6,6.3,35.1,0,.1,0-.1,0,0,0,5.3-3,11.4-4.7,17.7-4.7h-.2c6.2,0,12.4,1.6,17.7,4.7,7.1,4.1,15.3,5.6,23.2,4.2h0"/>
    </g>
  </g>
</svg>