<svg preserveAspectRatio="none" width="100%" height="100%" overflow="visible" style="display: block;" viewBox="0 0 122 52.4775" fill="none" xmlns="http://www.w3.org/2000/svg">
<g id="Frame 691316383">
<path id="Vector" d="M19.5556 15.2388C20.2039 15.2388 20.8256 15.4963 21.284 15.9547C21.7425 16.4131 22 17.0349 22 17.6832V34.7943C22 35.4426 21.7425 36.0644 21.284 36.5228C20.8256 36.9812 20.2039 37.2388 19.5556 37.2388H2.44444C1.79614 37.2388 1.17438 36.9812 0.715961 36.5228C0.257539 36.0644 0 35.4426 0 34.7943V17.6832C0 17.0349 0.257539 16.4131 0.715961 15.9547C1.17438 15.4963 1.79614 15.2388 2.44444 15.2388H19.5556ZM18.9444 34.1832V27.7054C18.9444 26.6487 18.5247 25.6352 17.7774 24.888C17.0302 24.1408 16.0167 23.721 14.96 23.721C13.9211 23.721 12.7111 24.3565 12.1244 25.3099V23.9532H8.71444V34.1832H12.1244V28.1576C12.1244 27.2165 12.8822 26.4465 13.8233 26.4465C14.2771 26.4465 14.7124 26.6268 15.0333 26.9477C15.3542 27.2686 15.5344 27.7038 15.5344 28.1576V34.1832H18.9444ZM4.74222 22.0343C5.2868 22.0343 5.80907 21.818 6.19415 21.4329C6.57922 21.0478 6.79556 20.5256 6.79556 19.981C6.79556 18.8443 5.87889 17.9154 4.74222 17.9154C4.1944 17.9154 3.66902 18.133 3.28165 18.5204C2.89429 18.9078 2.67667 19.4332 2.67667 19.981C2.67667 21.1176 3.60556 22.0343 4.74222 22.0343ZM6.44111 34.1832V23.9532H3.05556V34.1832H6.44111Z" fill="url(#paint0_linear_0_4)"/>
<g id="Bluesky concerto 1" clip-path="url(#clip0_0_4)">
<path id="Vector_2" fill-rule="evenodd" clip-rule="evenodd" d="M52.4 15.2388C51.0745 15.2388 50 16.3133 50 17.6388V34.8388C50 36.1643 51.0745 37.2388 52.4 37.2388H69.6C70.9255 37.2388 72 36.1643 72 34.8388V17.6388C72 16.3133 70.9255 15.2388 69.6 15.2388H52.4ZM55.9015 19.342C57.9652 20.7982 60.1846 23.7529 61 25.3379C61.8145 23.7538 64.0348 20.7991 66.0985 19.3402C68.0758 17.9452 68.8291 18.1873 69.3232 18.4105C69.8956 18.6697 70 19.5472 70 20.0647C70 20.5813 69.7165 24.3028 69.532 24.9238C68.9209 26.9759 66.7474 27.6689 64.7449 27.4466C67.6789 27.8813 70 29.5238 66.7996 32.7548C62.8771 36.1803 61.8677 32.5946 61.1747 30.1331C61.1147 29.9198 61.057 29.7149 61 29.5238L60.993 29.5472C60.2763 31.9511 58.88 36.6346 55.132 32.7548C51.7147 28.9496 54.322 27.8813 57.256 27.4466C55.2526 27.6689 53.08 26.9759 52.468 24.9238C52.2835 24.3019 52 20.5813 52 20.0638C52 19.5481 52.1044 18.6688 52.6768 18.4123C53.1709 18.1873 53.9242 17.947 55.9015 19.342Z" fill="var(--fill-0, white)"/>
</g>
<g id="Frame 2085660615">
<rect x="100" y="15.2388" width="22" height="22" rx="2" fill="var(--fill-0, white)"/>
<path id="Vector_3" d="M109.6 28.3816L113.233 26.2388L109.6 24.0959V28.3816ZM117.692 22.7888C117.783 23.1245 117.846 23.5745 117.888 24.1459C117.937 24.7173 117.958 25.2102 117.958 25.6388L118 26.2388C118 27.803 117.888 28.953 117.692 29.6888C117.517 30.3316 117.111 30.7459 116.481 30.9245C116.152 31.0173 115.55 31.0816 114.626 31.1245C113.716 31.1745 112.883 31.1959 112.113 31.1959L111 31.2388C108.067 31.2388 106.24 31.1245 105.519 30.9245C104.889 30.7459 104.483 30.3316 104.308 29.6888C104.217 29.353 104.154 28.903 104.112 28.3316C104.063 27.7602 104.042 27.2673 104.042 26.8388L104 26.2388C104 24.6745 104.112 23.5245 104.308 22.7888C104.483 22.1459 104.889 21.7316 105.519 21.553C105.848 21.4602 106.45 21.3959 107.374 21.353C108.284 21.303 109.117 21.2816 109.887 21.2816L111 21.2388C113.933 21.2388 115.76 21.353 116.481 21.553C117.111 21.7316 117.517 22.1459 117.692 22.7888Z" fill="var(--fill-0, #171717)"/>
</g>
</g>
<defs>
<linearGradient id="paint0_linear_0_4" x1="11" y1="15.2388" x2="11" y2="38.5" gradientUnits="userSpaceOnUse">
<stop stop-color="#ECF1FA"/>
<stop offset="1" stop-color="#FBFDFF"/>
</linearGradient>
<clipPath id="clip0_0_4">
<rect width="22" height="22" fill="white" transform="translate(50 15.2388)"/>
</clipPath>
</defs>
</svg>
