<svg xmlns="http://www.w3.org/2000/svg" width="23.548" height="27.081" viewBox="0 0 23.548 27.081">
  <g id="Guidance_" data-name="Guidance " transform="translate(-12.497 -6.871)">
    <path id="Path_214" data-name="Path 214" d="M41.16,67.227a11.431,11.431,0,0,0,1.6,4.175,11.221,11.221,0,0,0,1.6-4.175,2.909,2.909,0,0,1-3.2,0Z" transform="translate(-19.664 -41.406)" fill="#3268ff"/>
    <path id="Path_215" data-name="Path 215" d="M44.157,56.41v.931a1.766,1.766,0,1,1-3.532,0V56.41a4.729,4.729,0,0,0,3.532,0Z" transform="translate(-19.297 -33.985)" fill="#3268ff"/>
    <path id="Path_216" data-name="Path 216" d="M22.506,66.895l-.919-.6c-4.127-2.672-5.222-5.41-5.451-6.158a1.447,1.447,0,0,1,.364-1.5l.218-.224-.159-.164a1.449,1.449,0,0,1-.422-1.128l-.608.2a3.532,3.532,0,0,0-2.379,2.942L12.513,65.8a2.355,2.355,0,0,0,2.339,2.625H22.5V66.894Z" transform="translate(0 -34.478)" fill="#3268ff"/>
    <path id="Path_217" data-name="Path 217" d="M32.59,62.194c-3.809-2.466-4.774-4.886-4.974-5.54a.28.28,0,0,1,.076-.294l.847-.847a.3.3,0,0,0,0-.412l-.789-.789a.291.291,0,0,1-.017-.395,4.462,4.462,0,0,1,1.978-1.331,5.19,5.19,0,0,0,.8.612v2.073a12.586,12.586,0,0,0,2.078,6.923Z" transform="translate(-10.361 -31.362)" fill="#3268ff"/>
    <path id="Path_218" data-name="Path 218" d="M54.165,69.312a1.79,1.79,0,0,0,.435.984v.936l-1.984,3.114a2.334,2.334,0,0,0-.076,2.4.308.308,0,0,0,.029.047H48.125V75.252l.919-.595a13.6,13.6,0,0,0,5.121-5.345Z" transform="translate(-24.442 -42.836)" fill="#3268ff"/>
    <path id="Path_219" data-name="Path 219" d="M69.725,59.006h-1.16a1.76,1.76,0,0,0-1.354.635,1.465,1.465,0,0,0-.441-1l-.218-.224.159-.164a1.469,1.469,0,0,0,.424-1.131l.606.206A3.544,3.544,0,0,1,69.725,59Z" transform="translate(-37.082 -34.473)" fill="#3268ff"/>
    <path id="Path_220" data-name="Path 220" d="M53.982,56.654c-.2.654-1.165,3.073-4.974,5.54a12.586,12.586,0,0,0,2.078-6.923V53.2a5.311,5.311,0,0,0,.8-.612,4.459,4.459,0,0,1,1.978,1.331.291.291,0,0,1-.017.395l-.789.789a.3.3,0,0,0,0,.412l.847.847a.28.28,0,0,1,.076.294Z" transform="translate(-25.048 -31.362)" fill="#3268ff"/>
    <path id="Path_221" data-name="Path 221" d="M38.814,12.694l-.37,1.478a2,2,0,0,0-.435-.271c-.047-.359-.094-.671-.141-.936a2.338,2.338,0,0,0-2.319-1.972H29.955a2.337,2.337,0,0,0-2.319,1.972c-.047.265-.094.576-.141.936a2,2,0,0,0-.435.271l-.37-1.478a3.931,3.931,0,0,1,.2-2.5l.164-.389a3.937,3.937,0,0,1,2.731-2.279L32.2,6.966a3.68,3.68,0,0,1,.841-.094,3.756,3.756,0,0,1,2.661,1.1A2.984,2.984,0,0,1,38.439,9.78l.177.412a3.931,3.931,0,0,1,.2,2.5Z" transform="translate(-9.656 0)" fill="#3268ff"/>
    <path id="Path_222" data-name="Path 222" d="M39.619,27.871a1.467,1.467,0,0,0-1.4-1.464c-.08-.677-.163-1.241-.233-1.673a1.173,1.173,0,0,0-1.161-.984H31.232a1.173,1.173,0,0,0-1.161.984c-.07.432-.152,1-.233,1.673a1.467,1.467,0,0,0-.21,2.908,4.665,4.665,0,0,0,4.4,3.855,4.665,4.665,0,0,0,4.4-3.855,1.471,1.471,0,0,0,1.195-1.444Z" transform="translate(-10.932 -11.579)" fill="#3268ff"/>
    <path id="Path_223" data-name="Path 223" d="M70.978,68.023v1.535a1.182,1.182,0,0,1-.184.633L70.281,71H74.03l-.513-.806a1.179,1.179,0,0,1-.184-.633V68.023a.579.579,0,0,0,.441-.559.589.589,0,0,0-.589-.589h-2.06a.589.589,0,0,0-.589.589.583.583,0,0,0,.441.559Z" transform="translate(-39.642 -41.164)" fill="#3268ff"/>
    <path id="Path_224" data-name="Path 224" d="M71.875,84.883l-.722-1.133H65.9l-.722,1.133a1.178,1.178,0,0,0,.993,1.81h4.706a1.178,1.178,0,0,0,.993-1.81Z" transform="translate(-36.016 -52.741)" fill="#3268ff"/>
  </g>
</svg>
