<svg xmlns="http://www.w3.org/2000/svg" width="10.176" height="29.118" viewBox="0 0 10.176 29.118">
  <g id="Group_83" data-name="Group 83" transform="matrix(0.985, 0.174, -0.174, 0.985, 4.528, 0)">
    <path id="Path_38" data-name="Path 38" d="M5.736,11.816,5.723,9.273a.161.161,0,0,1,.013-.067V.455A.455.455,0,0,0,5.281,0H.5A.462.462,0,0,0,.147.149.454.454,0,0,0,0,.5V18.6a.44.44,0,0,0,.147.338.462.462,0,0,0,.351.149H5.272a.472.472,0,0,0,.355-.149.452.452,0,0,0,.143-.338l-.035-6.641Z" transform="translate(0 3.262)" fill="#3268ff"/>
    <path id="Path_64" data-name="Path 64" d="M4.62,0a.448.448,0,0,1,.392.663L4.217,2.1,3.158,4.022,2.842,4.6a.351.351,0,0,1-.615,0L1.91,4.022.851,2.1.056.663A.447.447,0,0,1,.448,0H4.625Z" transform="translate(0.445 23.814)" fill="#3268ff"/>
    <path id="Path_65" data-name="Path 65" d="M2.019,0h1.7A2.021,2.021,0,0,1,5.736,2.019H0A2.021,2.021,0,0,1,2.019,0Z" transform="translate(0 0)" fill="#3268ff"/>
  </g>
</svg>
