<svg preserveAspectRatio="none" width="100%" height="100%" overflow="visible" style="display: block;" viewBox="0 0 32 32" fill="none" xmlns="http://www.w3.org/2000/svg">
<g id="lightbulb-alt">
<path id="Icon" d="M13.6461 22.4916V25.7369C13.6461 27.2208 14.849 28.4238 16.3329 28.4238C17.8169 28.4238 19.0198 27.2208 19.0198 25.7369L19.0198 22.4916M16.3329 4.24246V5.5859M24.8829 7.78341L23.933 8.73336M7.78298 7.78341L8.73293 8.73336M5.58547 16.3334H4.24203M28.4239 16.3334H27.0804M23.0501 16.3334C23.0501 20.0432 20.0427 23.0505 16.3329 23.0505C12.6232 23.0505 9.61577 20.0432 9.61577 16.3334C9.61577 12.6236 12.6232 9.6162 16.3329 9.6162C20.0427 9.6162 23.0501 12.6236 23.0501 16.3334Z" stroke="var(--stroke-0, white)" stroke-width="1.5" stroke-linejoin="round"/>
</g>
</svg>
