<svg preserveAspectRatio="none" width="100%" height="100%" overflow="visible" style="display: block;" viewBox="0 0 28.1667 25.8071" fill="none" xmlns="http://www.w3.org/2000/svg">
<g id="Group">
<path id="Vector" d="M0.75 14.3771H6.08333M20.75 14.3771H27.4167M2.08333 25.0571L2.09667 25.0425M6.08333 19.7238L6.09667 19.7091M10.0833 25.0571L10.0967 25.0425M14.0833 19.7238L14.0967 19.7091M18.0833 25.0571L18.0967 25.0425M22.0833 19.7238L22.0967 19.7091M26.0833 25.0571L26.0967 25.0425M10.0833 15.7105C10.0833 15.7105 11.2833 10.7225 14.0833 7.71048" stroke="var(--stroke-0, white)" stroke-width="1.5" stroke-linecap="round" stroke-linejoin="round"/>
<path id="Vector_2" d="M19.6644 1.36518L20.163 6.55184C20.487 9.91584 17.9644 12.9118 14.6004 13.2345C11.3004 13.5518 8.30969 11.1398 7.99235 7.83851C7.83967 6.25359 8.32281 4.67293 9.33549 3.44421C10.3482 2.21549 11.8075 1.43935 13.3924 1.28651L18.9217 0.753175C19.0108 0.744538 19.1006 0.753564 19.1862 0.779735C19.2718 0.805906 19.3513 0.848707 19.4203 0.905686C19.4893 0.962664 19.5464 1.0327 19.5883 1.11178C19.6301 1.19085 19.656 1.27742 19.6644 1.36651" stroke="var(--stroke-0, white)" stroke-width="1.5" stroke-linecap="round" stroke-linejoin="round"/>
</g>
</svg>
