<svg preserveAspectRatio="none" width="100%" height="100%" overflow="visible" style="display: block;" viewBox="0 0 32 32" fill="none" xmlns="http://www.w3.org/2000/svg">
<g id="monitor-sun">
<path id="Icon" d="M11.454 28.9192H22.2014M16.8277 23.5454V28.9192M20.1863 4.73737H24.6192C26.1239 4.73737 26.8763 4.73737 27.4511 5.03022C27.9567 5.28782 28.3677 5.69886 28.6253 6.20442C28.9182 6.77918 28.9182 7.53157 28.9182 9.03636V19.2465C28.9182 20.7512 28.9182 21.5036 28.6253 22.0784C28.3677 22.584 27.9567 22.995 27.4511 23.2526C26.8763 23.5454 26.1239 23.5454 24.6192 23.5454H8.76709C7.51516 23.5454 6.8892 23.5454 6.39543 23.3409C5.73707 23.0682 5.21401 22.5452 4.94131 21.8868C4.73678 21.393 4.73678 20.7671 4.73678 19.5151M10.1105 3.39393V3.9537M10.1105 16.2687V16.8285M16.8273 10.1111H16.2675M3.95311 10.1111H3.39335M14.8594 5.36143L14.4636 5.75724M5.75708 14.4649L5.36127 14.8607M5.36167 5.36176L5.75748 5.75757M14.4653 14.4652L14.8611 14.861M12.7974 10.1111C12.7974 11.595 11.5944 12.798 10.1105 12.798C8.6266 12.798 7.42365 11.595 7.42365 10.1111C7.42365 8.62719 8.6266 7.42424 10.1105 7.42424C11.5944 7.42424 12.7974 8.62719 12.7974 10.1111Z" stroke="var(--stroke-0, white)" stroke-width="1.5" stroke-linecap="round" stroke-linejoin="round"/>
</g>
</svg>
