<svg preserveAspectRatio="none" width="100%" height="100%" overflow="visible" style="display: block;" viewBox="0 0 32 32" fill="none" xmlns="http://www.w3.org/2000/svg">
<g id="iconoir:tree">
<path id="Vector" d="M15.9802 29.4141V18.6666M15.9802 18.6666V13.2929M15.9802 18.6666L21.354 15.9797M22.6974 9.26258C22.6974 7.48107 21.9897 5.77253 20.73 4.51282C19.4703 3.2531 17.7617 2.5454 15.9802 2.5454C14.1987 2.5454 12.4902 3.2531 11.2305 4.51282C9.97077 5.77253 9.26307 7.48107 9.26307 9.26258M11.9499 9.26258H9.93479C7.97513 9.26258 6.09574 10.041 4.71005 11.4267C3.32437 12.8124 2.5459 14.6918 2.5459 16.6515C2.5459 18.6111 3.32437 20.4905 4.71005 21.8762C6.09574 23.2619 7.97513 24.0404 9.93479 24.0404H15.9802H22.0257C23.9291 24.0433 25.7603 23.3116 27.1376 21.9977C28.5148 20.6839 29.3319 18.8891 29.4185 16.9877C29.5051 15.0862 28.8546 13.2246 27.6025 11.791C26.3503 10.3573 24.5933 9.46219 22.6974 9.29213" stroke="var(--stroke-0, white)" stroke-width="1.5" stroke-linecap="round" stroke-linejoin="round"/>
</g>
</svg>
