<svg width="22" height="22" viewBox="0 0 24 24" fill="none" xmlns="http://www.w3.org/2000/svg"><path d="M12 2C6.48 2 2 6.48 2 12s4.48 10 10 10 10-4.48 10-10S17.52 2 12 2zm4.64 6.8c-.15 1.58-.8 5.42-1.13 7.19-.14.75-.42 1-.68 1.03-.58.05-1.02-.38-1.58-.75-.88-.58-1.38-.94-2.23-1.5-.99-.65-.35-1.01.22-1.59.15-.15 2.71-2.48 2.76-2.69.01-.03.01-.14-.07-.2-.08-.06-.19-.04-.28-.02-.12.03-2.07 1.32-5.84 3.87-.55.38-1.05.56-1.49.55-.49-.01-1.43-.28-2.13-.51-.86-.28-1.55-.43-1.49-.91.03-.25.38-.51 1.05-.78 4.12-1.8 6.87-2.98 8.26-3.56 3.93-1.64 4.75-1.92 5.28-1.93.12 0 .38.03.55.17.14.12.18.28.2.45.02.09.03.29.01.45z" fill="currentColor"/></svg>
