<svg preserveAspectRatio="none" width="100%" height="100%" overflow="visible" style="display: block;" viewBox="0 0 130 27.5607" fill="none" xmlns="http://www.w3.org/2000/svg">
<g id="Frame 2085660622">
<path id="Vector" fill-rule="evenodd" clip-rule="evenodd" d="M24.1572 20.3118C24.632 20.5861 25.1279 20.5545 25.4339 20.4278C25.7082 20.3118 26.3202 19.8053 26.7528 19.2355C26.9322 18.9928 28.4411 17.294 26.6684 15.3314L20.6013 9.24318C21.0655 9.25373 21.5404 7.95589 20.7596 7.11176C20.7701 7.11176 14.8296 1.23453 14.8507 1.23453C13.9221 0.40096 13.4579 0 12.7404 0H11.8118C11.3792 0 11.1576 0.369305 11.1576 0.80192V5.62399C11.1576 6.08826 11.1787 6.51032 11.5058 6.77411C11.5058 6.76356 0.806523 6.77411 0.806523 6.77411C0.479424 6.77411 0.205083 6.84797 0.0573613 7.21728C-0.0798092 7.56548 0.0573611 7.78706 0.173428 7.99809L7.45401 18.2015H12.7404L16.5495 15.437L16.8871 15.8168C16.8871 15.8168 2.93794 26.0729 2.94849 26.0624C2.6636 26.284 2.58974 26.7166 2.6847 26.9487C2.77967 27.1703 2.9696 27.5607 3.3178 27.5607H11.0416C11.7274 27.5607 12.4449 27.0437 12.4449 26.284V24.1209C12.4449 23.3295 12.4766 23.3401 13.4895 23.3401H15.0828C14.608 23.6039 13.785 24.0154 13.7639 24.0259C13.7111 24.047 13.6689 24.1842 13.6161 24.353C13.5634 24.5113 13.3207 25.3343 13.2785 25.3765C13.2257 25.4187 13.2152 25.5454 13.2257 25.6614C13.2363 25.7881 13.2574 25.9991 13.2574 25.9991H26.9744V24.9756H14.5341C14.5341 24.9756 14.6818 24.659 14.7557 24.6063C14.8085 24.5641 16.6655 23.625 17.2142 23.3401H17.9212C19.3984 23.3401 20.3586 22.9813 21.1289 21.7362C21.1394 21.7046 22.6694 18.919 22.7749 18.824C22.9648 18.6446 23.3236 18.212 24.0516 18.2859C24.6003 18.3386 25.0751 18.7818 25.1912 19.2566C25.2967 19.7103 25.054 19.9003 25.0329 19.9425C24.938 20.0691 24.4632 20.2485 24.1888 20.3223" fill="var(--fill-0, white)"/>
<path id="Vector_2" fill-rule="evenodd" clip-rule="evenodd" d="M1.25977 7.73474L8.01277 17.1995H12.4022L16.7178 14.034L18.2267 15.9544L3.866 26.5693H10.3552C11.1044 26.5693 11.4315 26.3266 11.442 25.6513C11.442 25.6513 11.442 23.5516 11.442 23.541C11.442 22.4436 12.0751 22.317 13.1514 22.317H15.2089C15.2089 22.317 17.7835 22.3065 17.7835 22.317C18.4694 22.317 19.4718 22.1376 19.9361 21.6839C20.3476 21.2619 21.3289 19.3098 21.7298 18.5818C21.9303 18.2125 22.2891 17.3894 23.8612 17.3578C24.9586 17.3261 25.7183 18.3391 25.8977 18.8772C26.362 18.3918 27.1322 17.2101 25.9821 15.9439C25.9821 15.9439 19.113 9.24362 19.1341 9.24362C17.7308 7.93522 15.6205 7.74529 14.7341 7.73474C14.7447 7.73474 1.25977 7.73474 1.25977 7.73474ZM13.0037 0.981734C13.6895 1.22442 17.5619 5.28678 17.5514 5.28678C19.3557 7.12275 20.4531 7.84026 19.7461 8.49445C18.8492 7.70309 17.372 6.75345 15.1351 6.75345H13.0037C12.4444 6.75345 12.1173 6.50021 12.1173 5.86711V0.907873C12.1173 0.907873 12.6766 0.865667 13.0037 0.981734Z" fill="var(--fill-0, white)"/>
<path id="Vector_3" fill-rule="evenodd" clip-rule="evenodd" d="M26.1306 17.3467C26.1306 17.5367 25.9723 17.6949 25.7718 17.6949C25.5714 17.6949 25.4131 17.5367 25.4131 17.3467C25.4131 17.1568 25.5714 16.9985 25.7718 16.9985C25.9723 16.9985 26.1306 17.1568 26.1306 17.3467Z" fill="var(--fill-0, white)"/>
<path id="Vector_4" d="M29.9394 10.5942H34.3394H38.3174C40.9553 10.5942 40.3116 12.5251 39.879 13.0105C38.6656 14.3505 37.621 14.7409 36.6924 15.2579V11.3328H32.303V23.3299H36.6819C36.6819 23.3299 36.6713 19.4153 36.6819 19.4153C37.1251 19.2464 39.784 17.822 40.9131 17.1467C41.2718 16.9356 43.1922 15.775 44.279 13.8651C45.1126 12.3985 44.9121 10.457 44.2896 9.30686C43.6459 8.10398 41.9999 6.76393 39.6891 6.76393C39.7207 6.76393 32.303 6.77448 32.303 6.76393C31.4272 6.75338 30.8258 7.18599 30.5936 8.00902C30.5831 8.01957 29.95 10.5942 29.95 10.5942" fill="var(--fill-0, white)"/>
<path id="Vector_5" d="M101.331 11.4487C101.215 9.89762 100.793 9.00073 99.6642 8.05109C98.8095 7.32303 97.2163 6.75325 95.3486 6.75325H85.7678H79.5424C78.0335 6.75325 76.1026 7.0698 75.2901 8.52591C74.4671 9.98203 74.6253 11.8497 75.7966 13.2003C75.7966 13.2003 80.1966 18.1278 80.1755 18.1595C80.6503 18.8348 80.3654 19.4996 79.7006 19.4996H72.8843V6.7638H68.4949V12.5988L63.6728 6.7638H42.7385C44.5534 7.4391 45.4924 9.01128 45.598 10.6046H45.9884H46.5265V23.3298H57.0253L58.0277 19.4996H50.916V16.8722H55.9174L56.8248 13.0525H50.916V10.6046H59.4416V23.3298H63.8205V13.1792L68.4949 18.4866V23.3298H80.6292C82.2963 23.3298 84.3539 23.0238 85.2402 21.5782C86.0949 20.1749 85.7256 18.4549 84.6071 16.9144C84.6388 16.9144 80.2388 11.9341 80.2388 11.9341C79.8062 11.3643 79.7006 10.594 80.8191 10.594C80.7769 10.6257 93.5127 10.6257 93.5127 10.594C96.2139 10.594 96.2983 12.029 96.3721 12.5988C96.6887 15.0046 96.235 16.7667 95.9923 17.5475C95.4225 19.3518 94.399 19.8161 93.7553 19.8161C93.1117 19.8161 92.1198 19.4257 91.5501 17.5053C91.2441 16.4818 90.6848 13.2319 91.4762 11.3115C91.4762 11.3432 86.1688 11.3432 86.1688 11.3115C86.0105 15.9331 86.8335 18.0962 87.6249 19.5312C89.1127 22.1902 91.1597 23.6885 93.7764 23.6885C96.3932 23.6885 98.4086 22.1691 99.9808 19.489C100.751 18.1806 101.637 15.4477 101.321 11.4698" fill="var(--fill-0, white)"/>
<path id="Vector_6" d="M99.2421 6.76374C101.015 7.58676 101.975 8.71578 102.26 10.5834H103.61V22.7599C103.61 24.6592 104.022 25.5455 104.328 26.263C104.328 26.263 108.496 23.699 108.496 23.7096C108.116 22.8021 108 21.8208 107.989 21.2511V17.1043H113.107L114.194 13.2741H107.979V10.594H118.541V23.3297H122.93V10.594H128.607C128.607 10.594 127.964 7.89276 127.974 7.90331C127.742 7.08029 127.088 6.76374 126.17 6.76374H99.2316H99.2421Z" fill="var(--fill-0, white)"/>
<path id="Vector_7" d="M122.909 24.9443H107.673V25.9783H122.909V24.9443Z" fill="var(--fill-0, white)"/>
<path id="Vector_8" fill-rule="evenodd" clip-rule="evenodd" d="M26.9533 24.9548H102.882V25.9677L26.9533 25.9783V24.9548Z" fill="var(--fill-0, white)"/>
<path id="Vector_9" fill-rule="evenodd" clip-rule="evenodd" d="M126.74 24.7965H127.183V23.9524H127.647C127.974 23.9524 127.995 24.0685 127.995 24.3639C127.995 24.6594 128.006 24.7016 128.048 24.7965H128.544V24.7438C128.449 24.7121 128.449 24.6277 128.449 24.3111C128.449 23.9946 128.354 23.8469 128.175 23.773C128.386 23.6886 128.512 23.4881 128.512 23.256C128.512 23.0239 128.407 22.6546 127.826 22.6546H126.74V24.8071V24.7965ZM127.183 23.5831V23.0028H127.742C128.006 23.0028 128.059 23.1716 128.059 23.2876C128.059 23.4987 127.942 23.5831 127.71 23.5831H127.193H127.183ZM125.737 23.7308C125.737 24.7438 126.571 25.5773 127.573 25.5773C128.576 25.5773 129.42 24.7543 129.42 23.7308C129.42 22.7073 128.597 21.8843 127.573 21.8843C126.55 21.8843 125.737 22.7179 125.737 23.7308ZM130 23.7308C130 25.0603 128.924 26.1471 127.584 26.1471C126.244 26.1471 125.188 25.0603 125.188 23.7308C125.188 22.4013 126.265 21.3251 127.584 21.3251C128.903 21.3251 130 22.4013 130 23.7308Z" fill="var(--fill-0, white)"/>
</g>
</svg>
