<svg xmlns="http://www.w3.org/2000/svg" width="20.522" height="26.029" viewBox="0 0 20.522 26.029">
  <g id="prize" transform="translate(0)">
    <path id="Path_212" data-name="Path 212" d="M32.484,42.741a19.488,19.488,0,0,0-1.408-2.718A.548.548,0,0,1,31,39.779c-.066-.822-.1-1.663-.186-2.491a10.448,10.448,0,0,0-.91-3.4,5.8,5.8,0,0,0-3.853-3.2,11.739,11.739,0,0,0-3.313-.37,11.563,11.563,0,0,0-2.9.318,5.985,5.985,0,0,0-3.148,1.877A7.045,7.045,0,0,0,15.372,35a12.766,12.766,0,0,0-.532,2.811c-.058.655-.085,1.315-.132,1.973a.526.526,0,0,1-.071.233,17.077,17.077,0,0,0-1.644,3.335,5.552,5.552,0,0,0-.367,1.45,8.338,8.338,0,0,0,0,1.047,1.318,1.318,0,0,0,.433.822,4.179,4.179,0,0,0,1.488.951,12.259,12.259,0,0,0,2.962.743A33.979,33.979,0,0,0,21.6,48.7a1.51,1.51,0,0,1,.156.016h2.1a.685.685,0,0,1,.1-.016c.786-.038,1.576-.06,2.359-.121a18.241,18.241,0,0,0,4.456-.795,4.587,4.587,0,0,0,1.515-.773,5.527,5.527,0,0,0,.658-.7,1,1,0,0,0,.181-.586A6.7,6.7,0,0,0,32.484,42.741Zm-8.769,1.392V45.52H21.99V44.15a2.315,2.315,0,0,1-2.126-2.167h1.5c.074.6.68.986,1.554.986.822,0,1.37-.392,1.37-.951,0-.474-.373-.745-1.282-.943l-.965-.206c-1.354-.274-2.017-.986-2.017-2.118a2.274,2.274,0,0,1,1.965-2.225V35.118h1.732v1.408a2.321,2.321,0,0,1,1.992,2.137H24.253a1.241,1.241,0,0,0-1.37-.978c-.751,0-1.291.362-1.291.926,0,.458.353.721,1.225.907l.9.189c1.491.312,2.135.956,2.135,2.11a2.317,2.317,0,0,1-2.126,2.315Z" transform="translate(-12.61 -22.683)" fill="#3268ff"/>
    <path id="Path_213" data-name="Path 213" d="M28.736,7.719c.359.548.729,1.1,1.1,1.644.156.236.156.244.427.159a11.481,11.481,0,0,1,3.085-.515,16.5,16.5,0,0,1,2.74.09c.595.082,1.178.233,1.765.362.332.071.337.079.463-.23.548-1.343,1.1-2.691,1.658-4.034a1.644,1.644,0,0,0,.123-.9,1.935,1.935,0,0,0-1.239-1.644,5.206,5.206,0,0,0-.622-.167h-.5l-.427.085a2.02,2.02,0,0,0-.9.5c-.164.148-.332.293-.493.444a.14.14,0,0,1-.225,0c-.09-.1-.189-.186-.274-.274a2.192,2.192,0,0,0-1.57-.732.973.973,0,0,1-.129-.022h-.238a1.88,1.88,0,0,0-.806.274,2.631,2.631,0,0,0-1.1,1.628c-.019.079-.038.159-.06.238H31.4a8.725,8.725,0,0,0-1.861.274,2.326,2.326,0,0,0-.937.477,1.143,1.143,0,0,0-.381,1.151,3.562,3.562,0,0,0,.512,1.192Z" transform="translate(-23.922 -2.48)" fill="#3268ff"/>
  </g>
</svg>
