<svg width="165" height="50" viewBox="0 0 164.513 50.3139" fill="none" xmlns="http://www.w3.org/2000/svg">
<g id="Group">
<path id="Vector" d="M18.7061 38.1792L12.4131 22.9165C14.0522 22.2248 15.3829 21.097 16.4055 19.5257C17.428 17.9618 17.9392 16.0822 17.9392 13.8943V9.84929C17.9392 7.95462 17.5558 6.25543 16.7889 4.75924C16.022 3.26305 14.9619 2.09767 13.6161 1.2556C12.2703 0.421039 10.7139 0 8.96962 0C7.22532 0 5.66898 0.421039 4.32316 1.2556C2.96983 2.09767 1.91723 3.26305 1.15034 4.75924C0.383445 6.25543 0 7.9471 0 9.84929V38.2919C0 38.6528 0.180444 38.8408 0.548853 38.8408H2.73675C3.09764 38.8408 3.2856 38.6604 3.2856 38.2919V23.5782H9.35307L15.2626 38.3972C15.3754 38.6904 15.5709 38.8333 15.8641 38.8333H18.2701C18.6009 38.8333 18.7588 38.6904 18.7588 38.3972L18.7061 38.1792ZM8.91699 20.5106H3.2856V9.84929C3.2856 7.84184 3.80439 6.21032 4.84194 4.95472C5.8795 3.69912 7.25539 3.06757 8.96962 3.06757C10.6839 3.06757 12.0597 3.69912 13.0973 4.95472C14.1349 6.21032 14.6536 7.84184 14.6536 9.84929V13.8943C14.6536 15.8641 14.1273 17.4581 13.0672 18.6761C12.0071 19.9016 10.6237 20.5106 8.90948 20.5106H8.91699Z" fill="white"/>
<path id="Vector_2" d="M39.217 30.194H37.1945C36.8261 30.194 36.6456 30.3745 36.6456 30.7429C36.5705 32.4195 36.0742 33.7728 35.1419 34.7878C34.2096 35.8104 32.9841 36.3216 31.4503 36.3216C29.9165 36.3216 28.5707 35.8104 27.6234 34.7878C26.676 33.7653 26.2024 32.4195 26.2024 30.7429V27.4046H31.4503C33.9314 27.4046 35.9464 26.6453 37.4952 25.134C39.044 23.6228 39.8185 21.7131 39.8185 19.4199C39.8185 17.1268 39.044 14.9614 37.4952 13.375C35.9464 11.7886 33.9314 10.9992 31.4503 10.9992C28.9692 10.9992 26.864 11.8036 25.3528 13.4051C23.8415 15.0065 23.0822 17.0892 23.0822 19.638V30.7429C23.0822 33.3292 23.8491 35.4119 25.3753 36.9757C26.9091 38.5471 28.9316 39.329 31.4428 39.329C33.954 39.329 35.8186 38.5396 37.3524 36.9532C38.8862 35.3668 39.6831 33.2992 39.7583 30.7429C39.7583 30.382 39.5779 30.194 39.2095 30.194H39.217ZM26.2024 19.638C26.2024 17.9237 26.661 16.5554 27.5707 15.5328C28.4805 14.5103 29.7737 13.9991 31.4503 13.9991C33.127 13.9991 34.3299 14.5028 35.2773 15.5028C36.2246 16.5027 36.6983 17.811 36.6983 19.4124C36.6983 21.0139 36.2246 22.0665 35.2773 22.9912C34.3299 23.9235 33.0518 24.3897 31.4503 24.3897H26.2024V19.6305V19.638Z" fill="white"/>
<path id="Vector_3" d="M84.9145 13.3452C83.4033 11.7437 81.4033 10.9392 78.9222 10.9392C76.4411 10.9392 74.7494 11.6836 73.2908 13.1798C71.8322 14.676 71.0278 16.6082 70.8849 18.9766C70.8849 19.3375 71.0654 19.5254 71.4338 19.5254H73.4562C73.7871 19.5254 73.9675 19.345 74.0051 18.9766C74.1179 17.4428 74.6066 16.2248 75.4787 15.315C76.3509 14.4053 77.5012 13.9467 78.9222 13.9467C80.3432 13.9467 81.7417 14.4579 82.6665 15.4804C83.5988 16.503 84.0649 17.8112 84.0649 19.4202V22.9764H78.7568C77.1554 22.9764 75.7118 23.3298 74.4337 24.0441C73.1555 24.7583 72.1706 25.7132 71.4789 26.9161C70.7872 28.1191 70.4413 29.4349 70.4413 30.8559C70.4413 33.337 71.2157 35.367 72.7645 36.9534C74.3134 38.5398 76.3434 39.3293 78.8621 39.3293C81.3808 39.3293 83.3507 38.5398 84.8769 36.9534C86.4107 35.367 87.1701 33.337 87.1701 30.8559V19.4277C87.1701 16.9841 86.4107 14.9617 84.8995 13.3602L84.9145 13.3452ZM84.0649 30.8483C84.0649 32.4874 83.5988 33.8106 82.6665 34.8106C81.7342 35.8106 80.4711 36.3143 78.8621 36.3143C77.2531 36.3143 75.9299 35.8106 74.9825 34.8106C74.0352 33.8106 73.5615 32.4874 73.5615 30.8483C73.5615 29.2093 74.0352 28.3071 74.9825 27.3748C75.9299 26.4425 77.1854 25.9763 78.7568 25.9763H84.0649V30.8408V30.8483Z" fill="white"/>
<path id="Vector_4" d="M103.921 35.931H103.207C101.711 35.931 100.575 35.4047 99.7861 34.3446C99.0041 33.2845 98.6132 31.7582 98.6132 29.7508V14.4355H103.26C103.621 14.4355 103.808 14.2551 103.808 13.8867V12.0296C103.808 11.6687 103.628 11.4807 103.26 11.4807H98.6132V4.36818C98.6132 4.00729 98.4327 3.81932 98.0643 3.81932H96.0418C95.6734 3.81932 95.493 3.99977 95.493 4.36818V11.4807H92.1021C91.7337 11.4807 91.5532 11.6612 91.5532 12.0296V13.8867C91.5532 14.2551 91.7337 14.4355 92.1021 14.4355H95.493V29.7508C95.493 32.668 96.1696 34.9311 97.5155 36.5325C98.8613 38.134 100.763 38.9384 103.207 38.9384H103.921C104.282 38.9384 104.47 38.758 104.47 38.3896V36.4724C104.47 36.1115 104.29 35.9235 103.921 35.9235V35.931Z" fill="white"/>
<path id="Vector_5" d="M123.583 13.3752C122.034 11.7512 120.019 10.9392 117.538 10.9392C115.057 10.9392 113.042 11.7512 111.493 13.3752C109.944 14.9993 109.17 17.0518 109.17 19.5254V29.698C109.17 32.1791 109.944 34.2317 111.493 35.8482C113.042 37.4722 115.057 38.2842 117.538 38.2842C120.019 38.2842 121.327 37.3744 122.786 35.5474V41.7277C122.786 43.4795 122.32 44.8479 121.395 45.8328C120.462 46.8177 119.177 47.3064 117.538 47.3064C115.899 47.3064 114.718 46.8177 113.793 45.8328C112.861 44.8479 112.365 43.4795 112.29 41.7277C112.29 41.3668 112.109 41.1788 111.741 41.1788H109.718C109.358 41.1788 109.17 41.3593 109.17 41.7277C109.245 44.3141 110.042 46.3967 111.576 47.9605C113.109 49.5244 115.094 50.3139 117.538 50.3139C119.981 50.3139 122.079 49.5319 123.605 47.9605C125.139 46.3892 125.906 44.3141 125.906 41.7277V19.5254C125.906 17.0443 125.131 14.9993 123.583 13.3752ZM122.786 29.698C122.786 31.3746 122.312 32.728 121.365 33.743C120.417 34.7655 119.139 35.2768 117.538 35.2768C115.936 35.2768 114.658 34.7655 113.711 33.743C112.763 32.7205 112.29 31.3746 112.29 29.698V19.5254C112.29 17.8488 112.763 16.503 113.711 15.4804C114.658 14.4579 115.936 13.9467 117.538 13.9467C119.139 13.9467 120.417 14.4579 121.365 15.4804C122.312 16.503 122.786 17.8488 122.786 19.5254V29.698Z" fill="white"/>
<path id="Vector_6" d="M144.01 11.3227H141.604C139.123 11.3227 137.071 12.1046 135.454 13.676C133.83 15.2474 133.018 17.2699 133.018 19.7435V38.2842C133.018 38.6451 133.198 38.8331 133.567 38.8331H135.589C135.95 38.8331 136.138 38.6526 136.138 38.2842V19.7435C136.138 18.0668 136.642 16.7436 137.642 15.7812C138.642 14.8188 139.965 14.3301 141.604 14.3301H144.01C144.371 14.3301 144.559 14.1497 144.559 13.7813V11.864C144.559 11.5031 144.379 11.3152 144.01 11.3152V11.3227Z" fill="white"/>
<path id="Vector_7" d="M162.19 13.3752C160.641 11.7512 158.611 10.9392 156.093 10.9392C153.574 10.9392 151.544 11.7512 149.995 13.3752C148.446 14.9993 147.672 17.0518 147.672 19.5254V30.7957C147.672 33.2768 148.446 35.3294 149.995 36.9459C151.544 38.5699 153.581 39.3819 156.093 39.3819C158.604 39.3819 160.641 38.5699 162.19 36.9459C163.739 35.3219 164.513 33.2768 164.513 30.7957V19.5254C164.513 17.0443 163.739 14.9993 162.19 13.3752ZM161.34 30.7957C161.34 32.4723 160.867 33.8332 159.919 34.8708C158.972 35.9083 157.694 36.4271 156.093 36.4271C154.491 36.4271 153.213 35.9083 152.266 34.8708C151.318 33.8332 150.845 32.4723 150.845 30.7957V19.5254C150.845 17.8488 151.318 16.4879 152.266 15.4504C153.213 14.4128 154.491 13.894 156.093 13.894C157.694 13.894 158.972 14.4128 159.919 15.4504C160.867 16.4879 161.34 17.8488 161.34 19.5254V30.7957Z" fill="white"/>
</g>
</svg>
