<svg id="Co-creation" xmlns="http://www.w3.org/2000/svg" width="49.542" height="40.774" viewBox="0 0 49.542 40.774">
  <g id="Group_167" data-name="Group 167" transform="translate(0)">
    <path id="Path_200" data-name="Path 200" d="M34.876,31.664a1.3,1.3,0,0,1-2.605.02,13.849,13.849,0,0,1,.345-3.95c.01-.04.023-.077.037-.117a7.548,7.548,0,0,1,.956-2.106,3.989,3.989,0,0,1,1.69-1.469,5.052,5.052,0,0,1,3.256.034c.235.057.473.114.624.144a5.1,5.1,0,0,0,1.127.094,3.32,3.32,0,0,0,.879-.154l.05-.017a3.283,3.283,0,0,0,.714-.352,5.823,5.823,0,0,0,.808-.651,8.18,8.18,0,0,0,.915-1.009,5.6,5.6,0,0,0,.61-.993,7.019,7.019,0,0,0,.433-1.274c.127-.506.225-1.026.322-1.539A1.3,1.3,0,1,1,47.6,18.8c-.107.573-.215,1.147-.352,1.693a9.527,9.527,0,0,1-.607,1.754,8.262,8.262,0,0,1-.885,1.452,10.742,10.742,0,0,1-1.21,1.338,8.831,8.831,0,0,1-1.187.946c-.013.007-.027.017-.04.023a.781.781,0,0,0-.369.671V39.067a1.308,1.308,0,0,1-2.615,0V33.273a.8.8,0,0,0-.795-.795h0a.8.8,0,0,0-.795.795v5.754a1.308,1.308,0,0,1-2.615,0V27a.159.159,0,0,0-.114-.158.164.164,0,0,0-.188.06.735.735,0,0,0-.057.084,4.827,4.827,0,0,0-.607,1.338c-.007.03-.013.064-.02.1A11.672,11.672,0,0,0,34.876,31.664Zm4.413-13.879A2.614,2.614,0,1,1,36.673,20.4,2.614,2.614,0,0,1,39.289,17.785ZM14.667,31.664a1.3,1.3,0,0,0,2.605.02,13.849,13.849,0,0,0-.345-3.95c-.01-.04-.023-.077-.037-.117a7.548,7.548,0,0,0-.956-2.106,3.989,3.989,0,0,0-1.69-1.469,5.052,5.052,0,0,0-3.256.034c-.235.057-.473.114-.627.144a5.054,5.054,0,0,1-1.123.094,3.32,3.32,0,0,1-.879-.154l-.05-.017a3.283,3.283,0,0,1-.714-.352,5.632,5.632,0,0,1-.808-.651,8.18,8.18,0,0,1-.915-1.009,5.6,5.6,0,0,1-.61-.993,7.019,7.019,0,0,1-.433-1.274c-.127-.506-.225-1.026-.322-1.539a1.3,1.3,0,1,0-2.562.479c.107.573.215,1.147.352,1.693A9.527,9.527,0,0,0,2.9,22.251,8.262,8.262,0,0,0,3.789,23.7,10.742,10.742,0,0,0,5,25.041a8.831,8.831,0,0,0,1.187.946c.013.007.027.017.04.023a.781.781,0,0,1,.369.671V39.067a1.308,1.308,0,0,0,2.615,0V33.273a.8.8,0,0,1,.795-.795h0a.8.8,0,0,1,.795.795v5.754a1.308,1.308,0,0,0,2.615,0V27a.159.159,0,0,1,.114-.158.164.164,0,0,1,.188.06.736.736,0,0,1,.057.084,4.827,4.827,0,0,1,.607,1.338c0,.03.013.064.02.1A11.672,11.672,0,0,1,14.667,31.664ZM10.254,17.785A2.614,2.614,0,1,0,12.866,20.4,2.614,2.614,0,0,0,10.254,17.785ZM26.9,19.8l.067-.02a4.17,4.17,0,0,0,.919-.453,7.534,7.534,0,0,0,1.046-.838,10.5,10.5,0,0,0,1.184-1.308,7.477,7.477,0,0,0,.791-1.284,9.129,9.129,0,0,0,.56-1.646c.164-.657.292-1.328.416-2a1.686,1.686,0,0,1,3.313.624c-.137.738-.275,1.482-.453,2.19a12.269,12.269,0,0,1-.788,2.267,10.7,10.7,0,0,1-1.143,1.878,13.879,13.879,0,0,1-1.569,1.73,10.488,10.488,0,0,1-1.532,1.221.436.436,0,0,1-.05.034,1,1,0,0,0-.479.868V39.084a1.69,1.69,0,1,1-3.38,0V31.59a1.031,1.031,0,0,0-1.029-1.026h0A1.031,1.031,0,0,0,23.74,31.59v7.494a1.69,1.69,0,1,1-3.38,0V23.066a1,1,0,0,0-.479-.868.436.436,0,0,1-.05-.034A10.488,10.488,0,0,1,18.3,20.944a13.88,13.88,0,0,1-1.569-1.73,10.7,10.7,0,0,1-1.143-1.878,12.269,12.269,0,0,1-.788-2.267c-.178-.708-.315-1.452-.453-2.19a1.686,1.686,0,0,1,3.313-.624c.124.667.251,1.338.416,2a9.129,9.129,0,0,0,.56,1.646,7.477,7.477,0,0,0,.791,1.284,10.5,10.5,0,0,0,1.184,1.308,7.534,7.534,0,0,0,1.046.838,4.17,4.17,0,0,0,.919.453l.067.02A9.523,9.523,0,0,0,26.9,19.8Zm1.113-4.979a3.246,3.246,0,1,0-3.246,3.246A3.248,3.248,0,0,0,28.015,14.821ZM25.521,6.542a.749.749,0,1,1-1.5,0V.751a.749.749,0,1,1,1.5,0ZM32.787,7.7a.748.748,0,1,1-1.445-.386l1.5-5.6a.75.75,0,1,1,1.449.389ZM39.51,10.69a.748.748,0,0,1-1.3-.744l2.9-5.016a.747.747,0,1,1,1.294.744Zm5.717,4.637a.75.75,0,0,1-1.06-1.063l4.094-4.094a.749.749,0,0,1,1.06,1.06ZM5.375,14.264a.75.75,0,0,1-1.06,1.063L.221,11.23a.749.749,0,1,1,1.06-1.06ZM11.33,9.942a.75.75,0,0,1-1.3.751L7.139,5.677a.748.748,0,1,1,1.294-.751ZM18.2,7.31a.75.75,0,1,1-1.449.386L15.253,2.1A.75.75,0,0,1,16.7,1.713Z" transform="translate(0 0)" fill="#489e01"/>
  </g>
</svg>
