<svg xmlns="http://www.w3.org/2000/svg" width="43.825" height="47.003" viewBox="0 0 43.825 47.003">
  <g id="Science_Battle" data-name="Science Battle" transform="translate(-5.718 -2.499)">
    <path id="Path_208" data-name="Path 208" d="M35.061,26.368a11.946,11.946,0,1,0,10.4,6.055l.9-1.1,1.672.286a14.612,14.612,0,1,1-12.976-7.891,14.754,14.754,0,0,1,3.968.545l.618,1.583-.895,1.1a12.2,12.2,0,0,0-3.691-.572Z" transform="translate(-7.444 -10.719)" fill="#3268ff" fill-rule="evenodd"/>
    <path id="Path_209" data-name="Path 209" d="M27.617,11.642A19.232,19.232,0,1,0,45.295,23.266a3.109,3.109,0,0,0,.242-.238,1.729,1.729,0,0,0,.184-.209l1.455-1.786A21.9,21.9,0,1,1,27.617,8.989a22.057,22.057,0,0,1,5.719.752l-1.455,1.786a4.122,4.122,0,0,0-.356.5,19.734,19.734,0,0,0-3.908-.388Z" transform="translate(0 -3.279)" fill="#3268ff" fill-rule="evenodd"/>
    <path id="Path_210" data-name="Path 210" d="M37.957,41.219a6.941,6.941,0,0,1,4.919-2.039h.085L39.522,43.4a4.33,4.33,0,0,0,6.714,5.471l3.438-4.221a6.959,6.959,0,1,1-11.717-3.432Z" transform="translate(-15.258 -18.533)" fill="#3268ff" fill-rule="evenodd"/>
    <path id="Path_211" data-name="Path 211" d="M66.755,10.554l-2.969-.5a1.309,1.309,0,0,1-1.015-.837L61.684,6.419l-3.923,4.814,1.366,3.5,3.711.634Zm-8.05,6.793-9.05,11.1A1.325,1.325,0,1,1,47.6,26.767l9.049-11.1-1.6-4.107a1.316,1.316,0,0,1,.168-1.411l5.844-7.168h.006a1.3,1.3,0,0,1,.545-.4,1.327,1.327,0,0,1,1.712.752l1.647,4.225,4.374.748a1.323,1.323,0,0,1,.9,2.157L64.4,17.639h-.006a1.33,1.33,0,0,1-1.247.47Z" transform="translate(-21.01)" fill="#3268ff" fill-rule="evenodd"/>
  </g>
</svg>
