<svg xmlns="http://www.w3.org/2000/svg" width="45.955" height="47.07" viewBox="0 0 45.955 47.07">
  <g id="Joint_Citizen_Science" data-name="Joint Citizen Science" transform="translate(-15.828 -15.005)">
    <path id="Path_201" data-name="Path 201" d="M40.91,25.968H55.2A1.075,1.075,0,0,0,56.273,24.9v-4.14A1.075,1.075,0,0,0,55.2,19.685H40.91a1.075,1.075,0,0,0-1.072,1.072V24.9a1.075,1.075,0,0,0,1.072,1.072Zm3-3.893h8.279a.751.751,0,1,1,0,1.5H43.915a.751.751,0,0,1,0-1.5ZM55.2,51.105H40.907a1.075,1.075,0,0,0-1.072,1.072v4.14a1.075,1.075,0,0,0,1.072,1.072H55.2a1.075,1.075,0,0,0,1.072-1.072v-4.14A1.075,1.075,0,0,0,55.2,51.105Zm-3,3.893H43.915a.751.751,0,0,1,0-1.5h8.279a.751.751,0,1,1,0,1.5Zm9.122-5.45-4.124-4.124a1.6,1.6,0,0,0-1.421-.441l-1.022-1.022a8.62,8.62,0,1,0-1.282,1.284l1.022,1.022a1.6,1.6,0,0,0,.441,1.421l4.124,4.124a1.6,1.6,0,1,0,2.262-2.262ZM48.044,45.377a6.837,6.837,0,1,1,6.837-6.837A6.846,6.846,0,0,1,48.044,45.377ZM28.591,28.392v1.061l-12.763,0V28.39a6.407,6.407,0,0,1,12.76,0Zm-9.272-9.3a2.892,2.892,0,1,1,2.892,2.892A2.9,2.9,0,0,1,19.319,19.1ZM28.591,44.1v1.061l-12.763,0V44.1a6.407,6.407,0,0,1,12.76,0Zm-6.38-6.4A2.892,2.892,0,1,1,25.1,34.807,2.9,2.9,0,0,1,22.21,37.7Zm6.38,22.114v1.061l-12.763,0V59.811a6.407,6.407,0,0,1,12.76,0Zm-6.38-6.4A2.892,2.892,0,1,1,25.1,50.517,2.9,2.9,0,0,1,22.21,53.409ZM36.983,22.83a2.856,2.856,0,0,0-2.1-2.75V15.756a.751.751,0,1,0-1.5,0V20.08a2.85,2.85,0,0,0,0,5.5V35.79a2.85,2.85,0,0,0,0,5.5V51.5a2.85,2.85,0,0,0,0,5.5v4.323a.751.751,0,1,0,1.5,0V57a2.851,2.851,0,0,0,0-5.5V41.29a2.851,2.851,0,0,0,0-5.5V25.58A2.859,2.859,0,0,0,36.983,22.83Zm-1.5,31.42a1.349,1.349,0,1,1-1.347-1.35A1.351,1.351,0,0,1,35.48,54.25Zm0-15.71a1.349,1.349,0,1,1-1.347-1.347A1.351,1.351,0,0,1,35.48,38.54Zm-1.347-14.36a1.349,1.349,0,1,1,1.35-1.35A1.351,1.351,0,0,1,34.133,24.181ZM48.044,35.612a7,7,0,0,0-5.7,2.929,7.011,7.011,0,0,0,11.4,0A7,7,0,0,0,48.044,35.612Zm0,5.09a2.161,2.161,0,0,1-1.77-3.4c0,.034-.005.066-.005.1A1.132,1.132,0,1,0,47.9,36.384c.047,0,.1-.005.144-.005a2.162,2.162,0,1,1,0,4.323Z" transform="translate(0 0)" fill="#ff009e" fill-rule="evenodd"/>
  </g>
</svg>
