<svg xmlns="http://www.w3.org/2000/svg" width="21.39" height="14.76" viewBox="0 0 21.39 14.76">
  <g id="video-camera-svgrepo-com" transform="translate(-2.25 -5.25)">
    <path id="Path_238" data-name="Path 238" d="M7.42,6h5.525a4.42,4.42,0,0,1,4.42,4.42v.138l2.144-1.34a2.21,2.21,0,0,1,3.381,1.874v3.076a2.21,2.21,0,0,1-3.381,1.879L17.365,14.7v.138a4.42,4.42,0,0,1-4.42,4.42H7.42A4.42,4.42,0,0,1,3,14.84V10.42A4.42,4.42,0,0,1,7.42,6Z" fill="none" stroke="#3268ff" stroke-linecap="round" stroke-linejoin="round" stroke-width="1.5" fill-rule="evenodd"/>
    <path id="Path_239" data-name="Path 239" d="M9.71,14.42a2.21,2.21,0,1,1,1.563-.647A2.21,2.21,0,0,1,9.71,14.42Z" transform="translate(0.473 0.42)" fill="none" stroke="#3268ff" stroke-linecap="round" stroke-linejoin="round" stroke-width="1.5" fill-rule="evenodd"/>
    <path id="Path_240" data-name="Path 240" d="M16,10.125v4.144" transform="translate(1.365 0.433)" fill="none" stroke="#3268ff" stroke-linecap="round" stroke-width="1.5"/>
  </g>
</svg>
