<svg xmlns="http://www.w3.org/2000/svg" width="27.82" height="25.737" viewBox="0 0 27.82 25.737">
  <g id="visibility" transform="translate(-10.18 -14.062)">
    <path id="Path_225" data-name="Path 225" d="M63.622,15.345a.921.921,0,0,0-1.693-.724l-1.809,4.233a.921.921,0,0,0,1.695.724Z" transform="translate(-32.233)" fill="#3268ff"/>
    <path id="Path_226" data-name="Path 226" d="M42.48,27.047a.368.368,0,0,0-.134.5l6.814,11.8a.369.369,0,0,0,.5.135l1.276-.738a1.1,1.1,0,0,0,.4-1.508l-1.9-3.3a2.21,2.21,0,0,0-2.084-3.609l-2.088-3.617a1.1,1.1,0,0,0-1.51-.4Z" transform="translate(-20.76 -7.822)" fill="#3268ff"/>
    <path id="Path_227" data-name="Path 227" d="M19.972,40.932a.369.369,0,0,1,.048-.434l7.069-7.645a.369.369,0,0,1,.59.065l5.946,10.3a.369.369,0,0,1-.238.544L28.338,44.9l3.522,4.178a1.1,1.1,0,0,1-.133,1.557l-1.151.97a1.1,1.1,0,0,1-1.557-.133l-4.761-5.649-1.028.233a.369.369,0,0,1-.4-.175Z" transform="translate(-6.298 -12.071)" fill="#3268ff"/>
    <path id="Path_228" data-name="Path 228" d="M10.378,59.017a1.473,1.473,0,0,1,.417-1.932l1.591-1.145a.368.368,0,0,1,.535.115l3.092,5.356a.369.369,0,0,1-.167.519l-1.789.807a1.473,1.473,0,0,1-1.881-.606Z" transform="translate(0 -27.026)" fill="#3268ff"/>
    <path id="Path_229" data-name="Path 229" d="M67.894,31.042a.92.92,0,0,1,.337-1.258L72.536,27.3a.921.921,0,0,1,.921,1.6l-4.307,2.486a.92.92,0,0,1-1.257-.337Z" transform="translate(-37.227 -8.476)" fill="#3268ff"/>
    <path id="Path_230" data-name="Path 230" d="M77.129,46.111a.92.92,0,0,0-.8-1.025l-4.57-.551a.921.921,0,0,0-.221,1.829l4.572.551a.921.921,0,0,0,1.023-.8Z" transform="translate(-39.136 -19.694)" fill="#3268ff"/>
  </g>
</svg>
