<?xml version="1.0" encoding="utf-8"?>
<!-- Generator: Adobe Illustrator 19.0.0, SVG Export Plug-In . SVG Version: 6.00 Build 0)  -->
<svg version="1.1" id="Group_77" xmlns="http://www.w3.org/2000/svg" xmlns:xlink="http://www.w3.org/1999/xlink" x="0px" y="0px"
	 viewBox="513 363.5 271.6 66.5" style="enable-background:new 513 363.5 271.6 66.5;" xml:space="preserve">
<style type="text/css">
	.st0{fill:#529E00;}
</style>
<path id="Union_1" class="st0" d="M1616.1,416.8c-7.5-4.3-11.3-6.5-21.7-6.5s-14.2,2.2-21.7,6.5c-9.7,5.6-23,13.2-47,13.2
	s-37.3-7.6-47-13.2c-5.5-3.1-9-5.1-14.5-6c-0.9-0.1-1.7-0.4-2.5-0.8c-0.9,0.2-1.7,0.3-2.6,0.3h-0.1c-10.4,0-14.2,2.2-21.7,6.5
	c-9.7,5.6-23,13.2-47,13.2c-24,0-37.3-7.6-47-13.2c-7.5-4.3-11.3-6.5-21.7-6.5s-14.2,2.2-21.7,6.5c-9.7,5.6-23,13.2-47,13.2
	c-24,0-37.3-7.6-47-13.2c-5.5-3.1-9-5.1-14.5-6c-0.6-0.1-1.2-0.3-1.8-0.5c-9,0.2-12.8,2.4-19.9,6.5c-9.7,5.6-23,13.2-47,13.2
	s-37.3-7.6-47-13.2c-7.5-4.3-11.3-6.5-21.7-6.5s-14.2,2.2-21.7,6.5c-9.7,5.6-23,13.2-47,13.2s-37.3-7.6-47-13.2
	c-5.5-3.1-9-5.1-14.5-6c-0.7-0.1-1.3-0.3-1.9-0.5c-0.3,0-0.7,0-1.1,0h-0.2c-10.4,0-14.2,2.2-21.7,6.5c-9.7,5.6-23,13.2-47,13.2
	c-24,0-37.3-7.6-47-13.2c-7.5-4.3-11.3-6.5-21.7-6.5c-10.3,0-14.2,2.2-21.7,6.5c-9.7,5.6-23,13.2-47,13.2s-37.3-7.6-47-13.2
	c-5.5-3.1-9-5.1-14.5-6c-0.6-0.1-1.2-0.3-1.8-0.5h-0.3c-10.4,0-14.2,2.2-21.7,6.5c-9.7,5.6-23,13.2-47,13.2s-37.3-7.6-47-13.2
	c-7.5-4.3-11.3-6.5-21.7-6.5c-10.4,0-14.2,2.2-21.7,6.5c-9.7,5.6-23,13.2-47,13.2s-37.3-7.6-47-13.2c-5.5-3.1-9-5.1-14.5-6
	c-4.1-0.5-7.1-3.9-7.3-8v-30.9c0.1-4.6,4-8.3,8.6-8.1c0.2,0,0.5,0,0.7,0c18.3,1.7,29.3,8,37.7,12.8c7.6,4.3,11.3,6.5,21.7,6.5
	s14.2-2.2,21.7-6.5c9.7-5.6,23-13.2,47-13.2c24,0,37.3,7.6,47,13.2c7.5,4.3,11.3,6.5,21.7,6.5c10.4,0,14.2-2.2,21.7-6.5
	c9.7-5.6,23-13.2,47-13.2h0.5c0.9,0,1.9,0.1,2.8,0.4c0.3,0,0.6,0,0.9,0c18.3,1.7,29.3,8,37.7,12.8c7.6,4.3,11.3,6.5,21.7,6.5
	c10.4,0,14.2-2.2,21.7-6.5c9.7-5.6,23-13.2,47-13.2s37.3,7.6,47,13.2c7.5,4.3,11.3,6.5,21.7,6.5s14.2-2.2,21.7-6.5
	c9.7-5.6,23-13.2,47-13.2h0.5c1,0,2,0.1,2.9,0.4c0.6-0.1,1.2-0.1,1.8,0c18.3,1.7,29.3,8,37.7,12.8c7.6,4.3,11.3,6.5,21.7,6.5
	s14.2-2.2,21.7-6.5c9.7-5.6,23-13.2,47-13.2s37.3,7.6,47,13.2c7.5,4.3,11.3,6.5,21.7,6.5s14.2-2.2,21.7-6.5c9.7-5.6,23-13.2,47-13.2
	h0.5c1.2,0,2.4,0.2,3.6,0.6c17.1,1.9,27.7,8,35.7,12.6c7.6,4.3,11.3,6.5,21.7,6.5s14.2-2.2,21.7-6.5c9.7-5.6,23-13.2,47-13.2
	s37.3,7.6,47,13.2c7.5,4.3,11.3,6.5,21.7,6.5s14.2-2.2,21.7-6.5c9.7-5.6,23-13.2,47-13.2h0.5c1.3,0,2.5,0.2,3.7,0.7
	c1-0.3,2-0.4,3.1-0.3c18.3,1.7,29.3,8,37.7,12.8c7.6,4.3,11.3,6.5,21.7,6.5s14.2-2.2,21.7-6.5c9.7-5.6,23-13.2,47-13.2
	s37.3,7.6,47,13.2c7.5,4.3,11.3,6.5,21.7,6.5s14.2-2.2,21.7-6.5c9.7-5.6,23-13.2,47-13.2h0.5c5.9-0.1,10.7,4.6,10.8,10.5h0v26
	c0,5.8-5,10.5-11.1,10.5h-0.2c-10.4,0-14.2,2.2-21.7,6.5c-9.7,5.6-23,13.2-47,13.2S1625.8,422.4,1616.1,416.8z"/>
</svg>
