<svg id="Group_77" data-name="Group 77" xmlns="http://www.w3.org/2000/svg" width="1366" height="66.526" viewBox="0 0 1366 66.526">
  <path id="Union_1" data-name="Union 1" d="M1239.078,53.356c-7.514-4.316-11.314-6.474-21.667-6.474s-14.152,2.157-21.687,6.474c-9.713,5.557-23.011,13.171-46.983,13.171s-37.292-7.613-46.983-13.171c-5.486-3.116-8.965-5.13-14.451-5.985a9.239,9.239,0,0,1-2.477-.768,11.824,11.824,0,0,1-2.606.28h-.149c-10.353,0-14.153,2.157-21.667,6.474-9.733,5.557-23.01,13.171-46.982,13.171s-37.292-7.613-46.983-13.171c-7.514-4.316-11.313-6.474-21.667-6.474s-14.152,2.157-21.687,6.474c-9.712,5.557-23.01,13.171-46.982,13.171s-37.292-7.613-46.983-13.171c-5.486-3.116-8.966-5.13-14.451-5.985a9.282,9.282,0,0,1-1.761-.466c-9.045.24-12.826,2.39-19.9,6.451-9.733,5.557-23.011,13.171-46.983,13.171s-37.292-7.613-46.983-13.171c-7.513-4.316-11.313-6.474-21.666-6.474s-14.153,2.157-21.687,6.474c-9.713,5.557-23.011,13.171-46.983,13.171s-37.292-7.613-46.983-13.171c-5.487-3.116-8.965-5.13-14.451-5.985a9.272,9.272,0,0,1-1.932-.531q-.521.044-1.054.043h-.15c-10.352,0-14.152,2.157-21.666,6.474-9.734,5.557-23.011,13.171-46.983,13.171s-37.292-7.613-46.982-13.171C421,49.039,417.2,46.882,406.85,46.882s-14.153,2.157-21.687,6.474c-9.713,5.557-23.011,13.171-46.983,13.171S300.888,58.913,291.2,53.356c-5.485-3.116-8.965-5.13-14.45-5.985a9.286,9.286,0,0,1-1.823-.489h-.266c-10.353,0-14.152,2.157-21.667,6.474-9.734,5.557-23.01,13.171-46.982,13.171s-37.292-7.613-46.983-13.171c-7.514-4.316-11.313-6.474-21.666-6.474s-14.152,2.157-21.688,6.474c-9.712,5.557-23.01,13.171-46.982,13.171S31.4,58.913,21.709,53.356c-5.486-3.116-8.965-5.13-14.451-5.985a8.334,8.334,0,0,1-7.258-8V8.468A8.368,8.368,0,0,1,9.285.386c18.251,1.67,29.329,7.98,37.7,12.765,7.556,4.315,11.335,6.474,21.688,6.474s14.152-2.158,21.687-6.474C100.07,7.592,113.369,0,137.34,0s37.292,7.592,46.983,13.151c7.513,4.315,11.313,6.474,21.666,6.474s14.152-2.158,21.666-6.474C237.389,7.592,250.687,0,274.637,0h.47a11.223,11.223,0,0,1,2.754.351,8.925,8.925,0,0,1,.914.035c18.25,1.67,29.329,7.98,37.7,12.765,7.556,4.315,11.334,6.474,21.688,6.474s14.152-2.158,21.687-6.474C369.558,7.592,382.856,0,406.828,0s37.292,7.592,46.983,13.151c7.514,4.315,11.314,6.474,21.666,6.474s14.154-2.158,21.667-6.474C506.876,7.592,520.175,0,544.126,0h.469a11.21,11.21,0,0,1,2.949.4A8.854,8.854,0,0,1,549.31.386c18.251,1.67,29.33,7.98,37.7,12.765,7.556,4.315,11.335,6.474,21.687,6.474s14.153-2.158,21.687-6.474C640.094,7.592,653.393,0,677.365,0s37.292,7.592,46.983,13.151c7.514,4.315,11.313,6.474,21.666,6.474s14.153-2.158,21.667-6.474C777.413,7.592,790.711,0,814.661,0h.47a11.172,11.172,0,0,1,3.555.589c17.078,1.929,27.652,7.953,35.713,12.562,7.556,4.315,11.334,6.474,21.687,6.474s14.153-2.158,21.687-6.474C907.486,7.592,920.785,0,944.756,0s37.292,7.592,46.983,13.151c7.513,4.315,11.313,6.474,21.666,6.474s14.153-2.158,21.667-6.474C1044.8,7.592,1058.1,0,1082.053,0h.47a11.168,11.168,0,0,1,3.732.651,8.8,8.8,0,0,1,3.081-.265c18.25,1.67,29.329,7.98,37.7,12.765,7.556,4.315,11.335,6.474,21.687,6.474s14.153-2.158,21.688-6.474C1180.12,7.592,1193.418,0,1217.39,0s37.292,7.592,46.983,13.151c7.514,4.315,11.314,6.474,21.666,6.474s14.152-2.158,21.667-6.474C1317.438,7.592,1330.737,0,1354.688,0h.469a10.686,10.686,0,0,1,10.823,10.464H1366V36.418c0,5.844-5.017,10.485-11.142,10.464h-.15c-10.353,0-14.153,2.157-21.666,6.474-9.733,5.557-23.011,13.171-46.983,13.171S1248.768,58.913,1239.078,53.356Z" transform="translate(0)" fill="#ff009e"/>
</svg>
